<?xml version="1.0" encoding="UTF-8" standalone="no"?>
<svg
   xmlns:dc="http://purl.org/dc/elements/1.1/"
   xmlns:cc="http://creativecommons.org/ns#"
   xmlns:rdf="http://www.w3.org/1999/02/22-rdf-syntax-ns#"
   xmlns:svg="http://www.w3.org/2000/svg"
   xmlns="http://www.w3.org/2000/svg"
   id="svg2809"
   version="1.1"
   width="22"
   height="22">
  <metadata
     id="metadata2813">
    <rdf:RDF>
      <cc:Work
         rdf:about="">
        <dc:format>image/svg+xml</dc:format>
        <dc:type
           rdf:resource="http://purl.org/dc/dcmitype/StillImage" />
        <dc:title></dc:title>
      </cc:Work>
    </rdf:RDF>
  </metadata>
  <defs
     id="defs1">
    <style
       id="current-color-scheme"
       type="text/css">
            .ColorScheme-NegativeText {
                color:#da4453;
            }
            .ColorScheme-PositiveText {
                color:#27ae60;
            }
        </style>
  </defs>
  <path
     id="path2805"
     d="M3 7v8h3L4 7zM1 5v12h19v-4h.5c.277 0 .5-.223.5-.5v-3c0-.277-.223-.5-.5-.5H20V5H4zm1 1h17v10H2z"
     class="ColorScheme-NegativeText"
     style="fill:currentColor;fill-opacity:1;stroke:none" />
  <path
     style="fill:#da4453;fill-opacity:1"
     id="path2807"
     fill="currentColor"
     class="ColorScheme-PositiveText"
     d="M12 8a3 3 0 0 0-2.826 2H8v2h1.176A3 3 0 0 0 12 14v-1h2v-1h-2v-2h2V9h-2z" />
</svg>
