<?xml version="1.0" encoding="UTF-8" standalone="no"?>
<svg
   xmlns:dc="http://purl.org/dc/elements/1.1/"
   xmlns:cc="http://creativecommons.org/ns#"
   xmlns:rdf="http://www.w3.org/1999/02/22-rdf-syntax-ns#"
   xmlns:svg="http://www.w3.org/2000/svg"
   xmlns="http://www.w3.org/2000/svg"
   height="22"
   width="22"
   version="1.1"
   id="svg821">
  <metadata
     id="metadata825">
    <rdf:RDF>
      <cc:Work
         rdf:about="">
        <dc:format>image/svg+xml</dc:format>
        <dc:type
           rdf:resource="http://purl.org/dc/dcmitype/StillImage" />
        <dc:title></dc:title>
      </cc:Work>
    </rdf:RDF>
  </metadata>
  <defs
     id="defs1">
    <style
       type="text/css"
       id="current-color-scheme">
            .ColorScheme-Text {
                color:#eff0f1;
            }
            .ColorScheme-PositiveText {
                color:#27ae60;
            }
        </style>
  </defs>
  <path
     id="path817"
     d="M 1 5 L 1 17 L 20 17 L 20 13 L 20.5 13 C 20.777 13 21 12.777 21 12.5 L 21 9.5 C 21 9.223 20.777 9 20.5 9 L 20 9 L 20 5 L 4 5 L 1 5 z M 2 6 L 19 6 L 19 16 L 2 16 L 2 6 z M 3 7 L 3 15 L 14 15 L 13.5 13 L 12 13 L 12 14 A 3 3 0 0 1 9.1757812 12 L 8 12 L 8 10 L 9.1738281 10 A 3 3 0 0 1 12 8 L 12 9 L 12.5 9 L 12 7 L 3 7 z M 12.5 9 L 12.75 10 L 14 10 L 14 9 L 12.5 9 z M 12.75 10 L 12 10 L 12 12 L 13.25 12 L 12.75 10 z M 13.25 12 L 13.5 13 L 14 13 L 14 12 L 13.25 12 z "
     style="fill:#04ced4;fill-opacity:1;stroke:none" />
</svg>
